<!DOCTYPE svg PUBLIC "-//W3C//DTD SVG 1.1//EN" "http://www.w3.org/Graphics/SVG/1.1/DTD/svg11.dtd">
<!-- Uploaded to: SVG Repo, www.svgrepo.com, Transformed by: SVG Repo Mixer Tools -->
<svg version="1.1" id="Capa_1" xmlns="http://www.w3.org/2000/svg" xmlns:xlink="http://www.w3.org/1999/xlink" viewBox="0 0 462.80 462.80" xml:space="preserve" width="800px" height="800px" fill="#000000">
<g id="SVGRepo_bgCarrier" stroke-width="0"/>
<g id="SVGRepo_tracerCarrier" stroke-linecap="round" stroke-linejoin="round"/>
<g id="SVGRepo_iconCarrier"> <g> <g> <g id="XMLID_29_"> <g> <polygon style="fill:#000000;" points="236.845,37.96 236.845,84.24 139.265,56.28 139.265,10 "/> <path style="fill:#000000;" d="M417.665,367.51c5.88,5.89,8.83,13.61,8.83,21.32c0,7.72-2.95,15.44-8.83,21.33l-42.65,42.64 l-42.65-42.64c-5.88-5.89-8.83-13.61-8.83-21.33c0-7.71,2.95-15.43,8.83-21.32c11.78-11.78,30.87-11.78,42.65,0 c5.89-5.89,13.61-8.84,21.33-8.84C404.055,358.67,411.775,361.62,417.665,367.51z"/> <path style="fill:#000000;" d="M252.225,325c5.89,5.89,8.84,13.6,8.84,21.32s-2.95,15.43-8.84,21.32l-42.65,42.65l-42.64-42.65 c-5.89-5.89-8.83-13.6-8.83-21.32s2.94-15.43,8.83-21.32c11.78-11.78,30.87-11.78,42.64,0c5.89-5.89,13.61-8.83,21.33-8.83 C238.615,316.17,246.335,319.11,252.225,325z"/> <polygon style="fill:#000000;" points="426.495,214.22 426.495,260.51 261.055,210.99 261.055,164.7 "/> <path style="fill:#000000;" d="M130.435,170.29c5.89,5.89,8.83,13.61,8.83,21.32c0,7.72-2.94,15.44-8.83,21.33l-42.65,42.64 l-42.64-42.64c-5.89-5.89-8.84-13.61-8.84-21.33c0-7.71,2.95-15.43,8.84-21.32c11.77-11.77,30.87-11.77,42.64,0 c5.89-5.88,13.61-8.83,21.32-8.83C116.825,161.46,124.545,164.41,130.435,170.29z"/> </g> <g> <path style="fill:none;stroke:#000000;stroke-width:12.958400000000001;stroke-linejoin:round;stroke-miterlimit:10;" d="M375.015,367.51 c-11.78-11.78-30.87-11.78-42.65,0c-5.88,5.89-8.83,13.61-8.83,21.32c0,7.72,2.95,15.44,8.83,21.33l42.65,42.64l42.65-42.64 c5.88-5.89,8.83-13.61,8.83-21.33c0-7.71-2.95-15.43-8.83-21.32c-5.89-5.89-13.61-8.84-21.32-8.84 C388.625,358.67,380.905,361.62,375.015,367.51z"/> <path style="fill:none;stroke:#000000;stroke-width:12.958400000000001;stroke-linejoin:round;stroke-miterlimit:10;" d="M209.575,325 c-11.77-11.78-30.86-11.78-42.64,0c-5.89,5.89-8.83,13.6-8.83,21.32s2.94,15.43,8.83,21.32l42.64,42.65l42.65-42.65 c5.89-5.89,8.84-13.6,8.84-21.32s-2.95-15.43-8.84-21.32c-5.89-5.89-13.61-8.83-21.32-8.83 C223.185,316.17,215.465,319.11,209.575,325z"/> <polyline style="fill:none;stroke:#000000;stroke-width:12.958400000000001;stroke-linejoin:round;stroke-miterlimit:10;" points=" 261.055,341.99 261.055,210.99 261.055,164.7 426.495,214.22 426.495,260.51 426.495,388.83 "/> <line style="fill:none;stroke:#000000;stroke-width:12.958400000000001;stroke-linejoin:round;stroke-miterlimit:10;" x1="261.055" y1="210.99" x2="426.495" y2="260.51"/> <path style="fill:none;stroke:#000000;stroke-width:12.958400000000001;stroke-linejoin:round;stroke-miterlimit:10;" d="M87.785,170.29 c-11.77-11.77-30.87-11.77-42.64,0c-5.89,5.89-8.84,13.61-8.84,21.32c0,7.72,2.95,15.44,8.84,21.33l42.64,42.64l42.65-42.64 c5.89-5.89,8.83-13.61,8.83-21.33c0-7.71-2.94-15.43-8.83-21.32c-5.89-5.88-13.61-8.83-21.33-8.83 C101.395,161.46,93.675,164.41,87.785,170.29z"/> <line style="fill:none;stroke:#000000;stroke-width:12.958400000000001;stroke-linejoin:round;stroke-miterlimit:10;" x1="139.265" y1="56.28" x2="139.265" y2="187.29"/> <polygon style="fill:none;stroke:#000000;stroke-width:12.958400000000001;stroke-linejoin:round;stroke-miterlimit:10;" points="139.265,56.28 236.845,84.24 236.845,37.96 139.265,10 "/> </g> </g> </g> </g> </g>
</svg>